<?xml version="1.0" encoding="UTF-8"?>
<!DOCTYPE svg PUBLIC "-//W3C//DTD SVG 1.1//EN" "http://www.w3.org/Graphics/SVG/1.1/DTD/svg11.dtd">
<svg xmlns="http://www.w3.org/2000/svg" version="1.1" width="458px" height="402px" style="shape-rendering:geometricPrecision; text-rendering:geometricPrecision; image-rendering:optimizeQuality; fill-rule:evenodd; clip-rule:evenodd" xmlns:xlink="http://www.w3.org/1999/xlink">
<g><path style="opacity:0.75" fill="#4169ff" d="M -0.5,-0.5 C -0.166667,-0.5 0.166667,-0.5 0.5,-0.5C 4.8567,4.8524 9.19003,10.1857 13.5,15.5C 12.5,17.5 11.5,19.5 10.5,21.5C 6.83333,14.8333 3.16667,8.16667 -0.5,1.5C -0.5,0.833333 -0.5,0.166667 -0.5,-0.5 Z"/></g>
<g><path style="opacity:0.919" fill="#3f6dff" d="M 13.5,15.5 C 23.8333,25.5 34.1667,35.5 44.5,45.5C 42.3,52.3624 40.6333,59.3624 39.5,66.5C 28.6006,52.3866 18.9339,37.3866 10.5,21.5C 11.5,19.5 12.5,17.5 13.5,15.5 Z"/></g>
<g><path style="opacity:0.936" fill="#3e6fff" d="M 44.5,45.5 C 46.1667,46.5 47.5,47.8333 48.5,49.5C 46.5912,56.8792 44.5912,64.2126 42.5,71.5C 41.1103,70.1007 40.1103,68.4341 39.5,66.5C 40.6333,59.3624 42.3,52.3624 44.5,45.5 Z"/></g>
<g><path style="opacity:0.957" fill="#3c73ff" d="M 48.5,49.5 C 59.1916,58.5295 69.8583,67.5295 80.5,76.5C 78.4884,87.5703 76.155,98.5703 73.5,109.5C 62.4399,97.4385 52.1066,84.7719 42.5,71.5C 44.5912,64.2126 46.5912,56.8792 48.5,49.5 Z"/></g>
<g><path style="opacity:0.966" fill="#3978ff" d="M 80.5,76.5 C 88.3829,81.9345 96.0495,87.6012 103.5,93.5C 101.241,106.602 98.5747,119.602 95.5,132.5C 87.4651,125.466 80.1317,117.799 73.5,109.5C 76.155,98.5703 78.4884,87.5703 80.5,76.5 Z"/></g>
<g><path style="opacity:0.968" fill="#387bff" d="M 103.5,93.5 C 107.025,94.7589 110.025,96.7589 112.5,99.5C 108.726,112.471 105.393,125.471 102.5,138.5C 99.5677,137.2 97.2344,135.2 95.5,132.5C 98.5747,119.602 101.241,106.602 103.5,93.5 Z"/></g>
<g><path style="opacity:0.977" fill="#3580ff" d="M 112.5,99.5 C 123.483,106.328 134.816,112.662 146.5,118.5C 145.991,124.202 145.157,129.868 144,135.5C 140.982,145.718 138.482,156.052 136.5,166.5C 124.269,158.27 112.935,148.936 102.5,138.5C 105.393,125.471 108.726,112.471 112.5,99.5 Z"/></g>
<g><path style="opacity:0.98" fill="#3285ff" d="M 146.5,118.5 C 154.5,122.167 162.5,125.833 170.5,129.5C 165.968,146.434 161.634,163.434 157.5,180.5C 150.291,176.068 143.291,171.402 136.5,166.5C 138.482,156.052 140.982,145.718 144,135.5C 145.157,129.868 145.991,124.202 146.5,118.5 Z"/></g>
<g><path style="opacity:0.981" fill="#3188ff" d="M 170.5,129.5 C 173.157,129.935 175.491,130.935 177.5,132.5C 173.504,149.8 169.504,167.133 165.5,184.5C 162.605,183.601 159.938,182.267 157.5,180.5C 161.634,163.434 165.968,146.434 170.5,129.5 Z"/></g>
<g><path style="opacity:0.991" fill="#1fa9ff" d="M 350.5,130.5 C 342.391,166.155 334.391,201.822 326.5,237.5C 324.45,239.547 322.117,241.214 319.5,242.5C 327.741,205.488 336.074,168.488 344.5,131.5C 346.565,131.483 348.565,131.15 350.5,130.5 Z"/></g>
<g><path style="opacity:0.987" fill="#1eabff" d="M 350.5,130.5 C 360.365,130.468 370.031,131.135 379.5,132.5C 371.924,159.558 365.591,186.891 360.5,214.5C 349.19,222.134 337.856,229.8 326.5,237.5C 334.391,201.822 342.391,166.155 350.5,130.5 Z"/></g>
<g><path style="opacity:0.99" fill="#21a5ff" d="M 344.5,131.5 C 336.074,168.488 327.741,205.488 319.5,242.5C 305.564,253.763 291.898,265.429 278.5,277.5C 288.216,232.336 298.716,187.336 310,142.5C 310.497,140.19 310.663,137.857 310.5,135.5C 321.568,133.084 332.902,131.751 344.5,131.5 Z"/></g>
<g><path style="opacity:0.983" fill="#2f8cff" d="M 177.5,132.5 C 187.711,135.636 198.045,138.303 208.5,140.5C 203.089,159.947 198.423,179.614 194.5,199.5C 184.359,195.264 174.693,190.264 165.5,184.5C 169.504,167.133 173.504,149.8 177.5,132.5 Z"/></g>
<g><path style="opacity:0.984" fill="#1bb1ff" d="M 379.5,132.5 C 393.403,133.642 406.736,136.976 419.5,142.5C 415.941,155.787 412.441,169.12 409,182.5C 408.503,184.81 408.337,187.143 408.5,189.5C 391.968,196.766 375.968,205.1 360.5,214.5C 365.591,186.891 371.924,159.558 379.5,132.5 Z"/></g>
<g><path style="opacity:0.993" fill="#24a0ff" d="M 310.5,135.5 C 310.663,137.857 310.497,140.19 310,142.5C 298.716,187.336 288.216,232.336 278.5,277.5C 269.494,286.506 260.16,295.173 250.5,303.5C 262.093,248.71 274.426,194.043 287.5,139.5C 295.08,137.689 302.746,136.355 310.5,135.5 Z"/></g>
<g><path style="opacity:0.984" fill="#269dff" d="M 287.5,139.5 C 274.426,194.043 262.093,248.71 250.5,303.5C 246.5,308.167 242.167,312.5 237.5,316.5C 242.498,293.17 247.498,269.837 252.5,246.5C 255.88,239.738 258.713,232.738 261,225.5C 261.703,222.518 261.203,219.851 259.5,217.5C 264.766,192.263 270.766,167.263 277.5,142.5C 280.743,141.51 284.076,140.51 287.5,139.5 Z"/></g>
<g><path style="opacity:0.985" fill="#2c91ff" d="M 208.5,140.5 C 214.359,142.143 220.359,143.143 226.5,143.5C 222.044,164.204 217.378,184.87 212.5,205.5C 206.302,204.066 200.302,202.066 194.5,199.5C 198.423,179.614 203.089,159.947 208.5,140.5 Z"/></g>
<g><path style="opacity:0.988" fill="#2899ff" d="M 277.5,142.5 C 270.766,167.263 264.766,192.263 259.5,217.5C 247.634,215.616 235.967,212.95 224.5,209.5C 229.578,187.931 234.244,166.264 238.5,144.5C 251.512,145.042 264.512,144.375 277.5,142.5 Z"/></g>
<g><path style="opacity:0.981" fill="#19b6ff" d="M 419.5,142.5 C 421.368,143.263 423.035,144.263 424.5,145.5C 421.097,159.386 418.097,173.386 415.5,187.5C 413.167,188.167 410.833,188.833 408.5,189.5C 408.337,187.143 408.503,184.81 409,182.5C 412.441,169.12 415.941,155.787 419.5,142.5 Z"/></g>
<g><path style="opacity:0.988" fill="#2a94ff" d="M 226.5,143.5 C 230.434,144.36 234.434,144.693 238.5,144.5C 234.244,166.264 229.578,187.931 224.5,209.5C 220.216,208.739 216.216,207.405 212.5,205.5C 217.378,184.87 222.044,164.204 226.5,143.5 Z"/></g>
<g><path style="opacity:0.961" fill="#17b8ff" d="M 424.5,145.5 C 435.137,150.327 444.137,157.327 451.5,166.5C 450.727,170.14 450.06,173.807 449.5,177.5C 437.845,179.831 426.511,183.164 415.5,187.5C 418.097,173.386 421.097,159.386 424.5,145.5 Z"/></g>
<g><path style="opacity:0.786" fill="#15bcff" d="M 451.5,166.5 C 453.5,169.167 455.5,171.833 457.5,174.5C 457.5,175.167 457.5,175.833 457.5,176.5C 454.794,176.575 452.127,176.908 449.5,177.5C 450.06,173.807 450.727,170.14 451.5,166.5 Z"/></g>
<g><path style="opacity:0.958" fill="#2899ff" d="M 252.5,246.5 C 247.498,269.837 242.498,293.17 237.5,316.5C 220.434,334.894 203.767,353.561 187.5,372.5C 189.75,359.417 192.416,346.417 195.5,333.5C 201.802,320.899 208.635,308.566 216,296.5C 228.03,279.651 240.197,262.985 252.5,246.5 Z"/></g>
<g><path style="opacity:0.894" fill="#2a94ff" d="M 195.5,333.5 C 192.416,346.417 189.75,359.417 187.5,372.5C 181.848,380.149 175.848,387.482 169.5,394.5C 170.159,391.545 170.492,388.545 170.5,385.5C 177.795,367.579 186.129,350.246 195.5,333.5 Z"/></g>
<g><path style="opacity:0.642" fill="#2b92ff" d="M 170.5,385.5 C 170.492,388.545 170.159,391.545 169.5,394.5C 168.194,396.816 166.861,399.15 165.5,401.5C 165.167,401.5 164.833,401.5 164.5,401.5C 165.531,395.733 167.531,390.399 170.5,385.5 Z"/></g>
</svg>
